<svg xmlns="http://www.w3.org/2000/svg" width="17" height="16" fill="none"><g stroke="#0768B5" stroke-linecap="round" stroke-linejoin="round" stroke-width="2" clip-path="url(#a)"><path d="M3.104 2h10.84c.36 0 .704.14.958.39s.397.59.397.943v4a6.613 6.613 0 0 1-1.984 4.714A6.831 6.831 0 0 1 8.525 14c-.89 0-1.771-.172-2.593-.508a6.783 6.783 0 0 1-2.198-1.445 6.613 6.613 0 0 1-1.985-4.714v-4c0-.353.143-.692.397-.942S2.746 2 3.104 2v0Z"/><path d="m5.814 6.667 2.71 2.666 2.71-2.666"/></g><defs><clipPath id="a"><path fill="#fff" d="M.395 0h16.259v16H.394z"/></clipPath></defs></svg>